<?xml version="1.0" encoding="utf-8"?>
<!-- Generator: Adobe Illustrator 16.0.0, SVG Export Plug-In . SVG Version: 6.00 Build 0)  -->
<!DOCTYPE svg PUBLIC "-//W3C//DTD SVG 1.1//EN" "http://www.w3.org/Graphics/SVG/1.1/DTD/svg11.dtd">
<svg version="1.1" id="Capa_1" xmlns="http://www.w3.org/2000/svg" xmlns:xlink="http://www.w3.org/1999/xlink" x="0px" y="0px"
	 width="103px" height="72px" viewBox="0 0 103 72" enable-background="new 0 0 103 72" xml:space="preserve">
<g>
	<path fill-rule="evenodd" clip-rule="evenodd" fill="#63A9DF" d="M8.864,57.318c0-14.212,0-28.424,0-42.636
		c0.087-0.14,0.215-0.269,0.257-0.422c1.688-6.119,5.213-8.826,11.531-8.833c4.711-0.005,9.423-0.002,14.135-0.002
		c16.075,0,32.15-0.013,48.225,0.007c5.535,0.007,9.505,3.18,10.794,8.507c0.063,0.259,0.218,0.495,0.331,0.742
		c0,14.212,0,28.424,0,42.636c-0.09,0.137-0.221,0.263-0.262,0.415c-1.653,6.095-5.214,8.833-11.524,8.84
		c-4.711,0.005-9.423,0.002-14.134,0.002c-16.074,0-32.147,0.014-48.222-0.008c-5.536-0.007-9.491-3.166-10.801-8.501
		C9.129,57.805,8.976,57.566,8.864,57.318z M11.537,31.982c-0.032,0.625-0.077,1.11-0.077,1.596
		c-0.004,7.378-0.015,14.757,0.004,22.135c0.013,4.94,3.427,8.333,8.396,8.335c21.081,0.008,42.163,0.008,63.243-0.004
		c5.059-0.002,8.422-3.388,8.433-8.464c0.017-7.323,0.006-14.646,0.006-21.969c0-0.527,0-1.054,0-1.629
		C64.767,31.982,38.257,31.982,11.537,31.982z M91.462,18.659c0.03-0.568,0.074-1.053,0.077-1.537
		c0.041-5.982-3.112-9.174-9.06-9.174c-20.912,0-41.824-0.009-62.736,0.01c-5.732,0.005-9.513,5.082-8.02,10.701
		C38.265,18.659,64.812,18.659,91.462,18.659z"/>
	<path fill-rule="evenodd" clip-rule="evenodd" fill="#63A9DF" d="M51.36,47.92c-7.933,0-15.866,0-23.799,0
		c-0.444-0.001-0.977,0.143-1.31-0.052c-0.504-0.296-0.868-0.83-1.291-1.263c0.405-0.395,0.754-0.893,1.233-1.149
		c0.348-0.186,0.869-0.057,1.312-0.057c16.033-0.002,32.065-0.003,48.098-0.002c0.388,0,0.869-0.131,1.144,0.048
		c0.495,0.322,0.865,0.834,1.289,1.268c-0.405,0.394-0.754,0.893-1.232,1.148c-0.349,0.186-0.869,0.058-1.312,0.058
		C67.448,47.92,59.404,47.919,51.36,47.92z"/>
</g>
</svg>
