<?xml version="1.0" encoding="utf-8"?>
<!-- Generator: Adobe Illustrator 16.0.0, SVG Export Plug-In . SVG Version: 6.00 Build 0)  -->
<!DOCTYPE svg PUBLIC "-//W3C//DTD SVG 1.1//EN" "http://www.w3.org/Graphics/SVG/1.1/DTD/svg11.dtd">
<svg version="1.1" id="Capa_1" xmlns="http://www.w3.org/2000/svg" xmlns:xlink="http://www.w3.org/1999/xlink" x="0px" y="0px"
	 width="127.56px" height="70.87px" viewBox="0 0 127.56 70.87" enable-background="new 0 0 127.56 70.87" xml:space="preserve">
<g>
	<g>
		<path fill="#63A9DF" d="M50.37,46.889c-2.936,0-5.684-1.791-6.785-4.675l-7.051-18.445l-4.957-3.347
			c-3.324-2.247-4.199-6.763-1.953-10.088c2.244-3.323,6.76-4.201,10.09-1.951l6.854,4.63c1.236,0.836,2.188,2.032,2.719,3.427
			l5.42,14.168l8.936-2.859c3.82-1.221,7.912,0.886,9.131,4.709c1.223,3.823-0.885,7.912-4.705,9.133l-15.484,4.951
			C51.851,46.775,51.104,46.889,50.37,46.889z"/>
		<path fill="#63A9DF" d="M90.729,45.494c-1.4,0-2.814-0.405-4.063-1.249l-6.854-4.631c-1.236-0.836-2.184-2.031-2.719-3.426
			l-5.418-14.168l-8.934,2.856c-3.824,1.223-7.912-0.883-9.135-4.708c-1.223-3.821,0.885-7.91,4.709-9.133l15.48-4.949
			c3.666-1.176,7.621,0.723,8.998,4.325l7.053,18.444l4.957,3.347c3.322,2.247,4.197,6.764,1.949,10.089
			C95.353,44.37,93.062,45.494,90.729,45.494z"/>
	</g>
	<g>
		<g>
			<path fill="#01404F" d="M3.467,64.943V51.343h12.142v2.376H5.824v8.849h9.803v2.376H3.467z M7.563,59.031V57.03h7.539v2.001
				H7.563z"/>
			<path fill="#01404F" d="M16.487,64.943V51.343h2.376v13.601H16.487z"/>
			<path fill="#01404F" d="M18.302,51.343h2.899l6.174,10.477l6.155-10.477h2.731l-7.839,13.021c-0.138,0.237-0.3,0.424-0.486,0.562
				c-0.188,0.137-0.405,0.206-0.655,0.206c-0.262,0-0.486-0.069-0.673-0.206c-0.188-0.138-0.35-0.324-0.486-0.562L18.302,51.343z"/>
			<path fill="#01404F" d="M38.548,64.943v-1.782h7.646c0.478,0,0.845-0.121,1.102-0.364c0.258-0.243,0.386-0.566,0.386-0.969
				c0-0.439-0.128-0.769-0.386-0.989c-0.257-0.219-0.624-0.329-1.102-0.329h-4.686c-0.478,0-0.91-0.072-1.298-0.218
				c-0.389-0.145-0.716-0.346-0.982-0.604c-0.267-0.257-0.473-0.563-0.617-0.919c-0.146-0.355-0.218-0.743-0.218-1.164
				c0-0.412,0.067-0.793,0.203-1.144s0.337-0.652,0.604-0.905s0.597-0.451,0.989-0.597c0.393-0.145,0.842-0.217,1.347-0.217h7.324
				v1.781h-7.324c-0.411,0-0.729,0.11-0.954,0.33c-0.224,0.22-0.336,0.526-0.336,0.919s0.114,0.697,0.344,0.912
				c0.229,0.216,0.54,0.323,0.933,0.323h4.672c1.039,0,1.827,0.243,2.364,0.729c0.538,0.486,0.808,1.226,0.808,2.217
				c0,0.43-0.066,0.827-0.197,1.192s-0.327,0.681-0.589,0.947s-0.592,0.475-0.989,0.624s-0.863,0.225-1.396,0.225H38.548z"/>
			<path fill="#01404F" d="M53.911,64.943c-0.711,0-1.368-0.133-1.971-0.399c-0.604-0.267-1.128-0.632-1.572-1.095
				s-0.79-1.013-1.038-1.648c-0.248-0.637-0.372-1.324-0.372-2.063c0-0.749,0.124-1.432,0.372-2.049s0.594-1.144,1.038-1.578
				c0.444-0.436,0.969-0.772,1.572-1.011c0.603-0.238,1.26-0.357,1.971-0.357h2.483c0.739,0,1.415,0.121,2.027,0.364
				c0.613,0.244,1.139,0.585,1.579,1.024c0.439,0.44,0.78,0.966,1.024,1.579c0.243,0.612,0.364,1.288,0.364,2.027
				c0,0.738-0.124,1.426-0.372,2.063c-0.248,0.636-0.594,1.186-1.038,1.648s-0.971,0.828-1.578,1.095
				c-0.608,0.267-1.277,0.399-2.007,0.399H53.911z M56.395,63.161c0.468,0,0.898-0.084,1.291-0.252
				c0.393-0.169,0.731-0.4,1.018-0.694c0.285-0.295,0.507-0.648,0.666-1.06c0.159-0.412,0.238-0.856,0.238-1.333
				c0-0.478-0.079-0.919-0.238-1.326s-0.381-0.755-0.666-1.045c-0.286-0.29-0.625-0.517-1.018-0.681s-0.823-0.246-1.291-0.246
				h-2.483c-0.458,0-0.882,0.082-1.27,0.246c-0.389,0.164-0.723,0.391-1.003,0.681c-0.281,0.29-0.501,0.636-0.66,1.038
				s-0.238,0.847-0.238,1.333c0,0.477,0.079,0.921,0.238,1.333c0.159,0.411,0.379,0.765,0.66,1.06
				c0.28,0.294,0.614,0.525,1.003,0.694c0.388,0.168,0.812,0.252,1.27,0.252H56.395z"/>
			<path fill="#01404F" d="M61.193,64.943v-10.2h8.657v1.781h-6.89v8.419H61.193z M64.267,60.72v-1.557h5.163v1.557H64.267z"/>
			<path fill="#01404F" d="M73.288,64.943v-8.419h-3.873v-1.781h9.527v1.781h-3.873v8.419H73.288z"/>
			<path fill="#01404F" d="M86.49,61.534l-1.586,2.988c-0.103,0.188-0.233,0.327-0.393,0.421s-0.332,0.141-0.519,0.141
				c-0.412,0-0.721-0.188-0.927-0.562l-5.275-9.779h2.133l4.125,7.843l1.544-2.778l-2.652-5.064h2.146l3.943,7.843l4.152-7.843
				h1.993l-5.276,9.779c-0.103,0.188-0.236,0.327-0.399,0.421c-0.164,0.094-0.339,0.141-0.526,0.141s-0.36-0.047-0.52-0.141
				c-0.158-0.094-0.29-0.233-0.393-0.421L86.49,61.534z"/>
			<path fill="#01404F" d="M102.093,64.943l-1.529-2.567h-4.827l0.842-1.445h3.129l-2.272-3.816l-4.631,7.829H90.77l5.865-9.766
				c0.103-0.178,0.225-0.317,0.364-0.421c0.141-0.103,0.309-0.154,0.506-0.154c0.196,0,0.362,0.052,0.498,0.154
				c0.135,0.104,0.254,0.243,0.357,0.421l5.879,9.766H102.093z"/>
			<path fill="#01404F" d="M113.162,64.943l-2.581-2.834h-3.816v-1.571h4.251c0.646,0,1.132-0.176,1.459-0.526
				s0.491-0.858,0.491-1.522s-0.171-1.157-0.512-1.48c-0.342-0.322-0.821-0.484-1.438-0.484h-5.557v8.419h-1.768v-10.2h7.324
				c0.58,0,1.099,0.086,1.558,0.26c0.458,0.173,0.847,0.421,1.164,0.743c0.318,0.323,0.562,0.714,0.729,1.172
				c0.169,0.458,0.253,0.973,0.253,1.543c0,0.852-0.185,1.564-0.554,2.14c-0.37,0.575-0.887,0.989-1.551,1.242l3.072,3.101H113.162z
				"/>
			<path fill="#01404F" d="M114.973,64.943v-10.2h9.106v1.781h-7.339v6.637h7.353v1.782H114.973z M118.046,60.51v-1.501h5.654v1.501
				H118.046z"/>
		</g>
	</g>
</g>
</svg>
