<?xml version="1.0" encoding="utf-8"?>
<!-- Generator: Adobe Illustrator 16.0.0, SVG Export Plug-In . SVG Version: 6.00 Build 0)  -->
<!DOCTYPE svg PUBLIC "-//W3C//DTD SVG 1.1//EN" "http://www.w3.org/Graphics/SVG/1.1/DTD/svg11.dtd">
<svg version="1.1" id="Capa_1" xmlns="http://www.w3.org/2000/svg" xmlns:xlink="http://www.w3.org/1999/xlink" x="0px" y="0px"
	 width="73.7px" height="45.35px" viewBox="0 0 73.7 45.35" enable-background="new 0 0 73.7 45.35" xml:space="preserve">
<g>
	<path fill="#FFFFFF" d="M24.37,43.889c-2.936,0-5.684-1.791-6.785-4.674l-7.051-18.446l-4.957-3.347
		c-3.324-2.247-4.199-6.763-1.953-10.088c2.244-3.323,6.76-4.201,10.09-1.951l6.854,4.63c1.236,0.836,2.188,2.032,2.719,3.427
		l5.42,14.167l8.937-2.858c3.819-1.221,7.912,0.886,9.131,4.709c1.223,3.823-0.885,7.913-4.705,9.134l-15.484,4.951
		C25.852,43.775,25.104,43.889,24.37,43.889z"/>
	<path fill="#FFFFFF" d="M64.729,42.494c-1.4,0-2.814-0.404-4.063-1.248l-6.854-4.631c-1.236-0.838-2.185-2.031-2.72-3.428
		L45.675,19.02l-8.934,2.856c-3.824,1.223-7.912-0.883-9.135-4.708c-1.224-3.821,0.885-7.91,4.709-9.133l15.479-4.949
		c3.666-1.176,7.621,0.723,8.998,4.325l7.054,18.444l4.957,3.347c3.321,2.247,4.196,6.765,1.948,10.089
		C69.354,41.371,67.063,42.494,64.729,42.494z"/>
</g>
</svg>
