<?xml version="1.0" encoding="utf-8"?>
<!-- Generator: Adobe Illustrator 16.0.0, SVG Export Plug-In . SVG Version: 6.00 Build 0)  -->
<!DOCTYPE svg PUBLIC "-//W3C//DTD SVG 1.1//EN" "http://www.w3.org/Graphics/SVG/1.1/DTD/svg11.dtd">
<svg version="1.1" id="Capa_1" xmlns="http://www.w3.org/2000/svg" xmlns:xlink="http://www.w3.org/1999/xlink" x="0px" y="0px"
	 width="58.189px" height="70.7px" viewBox="0 0 58.189 70.7" enable-background="new 0 0 58.189 70.7" xml:space="preserve">
<g>
	<path fill-rule="evenodd" clip-rule="evenodd" fill="#FFFFFF" d="M4.049,35.296c0-8.451,0-16.901,0-25.352
		c0-4.217,1.651-5.891,5.821-5.891c8.694-0.002,17.39,0.044,26.084-0.019c4.266-0.031,7.935,1.294,11.073,4.18
		c3.206,2.947,6.202,6.074,6.808,10.612c0.34,2.553,0.305,5.165,0.305,7.75c-0.003,11.331-0.055,22.661-0.092,33.992
		c-0.002,0.635,0.008,1.272-0.053,1.902c-0.189,1.979-1.593,3.586-3.528,3.99c-0.71,0.148-1.453,0.193-2.181,0.193
		c-12.798,0.013-25.596,0.013-38.394,0.009c-4.192-0.002-5.845-1.674-5.844-5.87C4.05,52.294,4.049,43.795,4.049,35.296z
		 M50.142,17.083c-1.232-2.94-3.601-5.176-6.117-7.283c-2.104-1.763-4.543-2.601-7.291-2.598c-9.09,0.011-18.18,0.002-27.271,0.006
		c-1.854,0.001-2.33,0.471-2.33,2.346c-0.006,17.202-0.006,34.405,0,51.608c0.001,1.874,0.477,2.346,2.332,2.346
		c13.049,0.005,26.098,0.005,39.146,0c1.874-0.001,2.355-0.459,2.352-2.325c-0.024-12.167-0.053-24.335-0.105-36.502
		c-0.013-3.148-1.778-4.891-4.904-4.931c-1.857-0.023-3.715,0.001-5.571-0.011c-1.313-0.008-1.974-0.647-1.954-1.997
		c0.026-1.809,0.015-3.617,0.004-5.425c-0.007-1.058,0.328-1.889,1.515-1.918c1.284-0.032,1.628,0.866,1.637,1.962
		c0.011,1.356,0.003,2.713,0.003,4.015C44.502,16.617,47.278,16.847,50.142,17.083z"/>
	<path fill-rule="evenodd" clip-rule="evenodd" fill="#FFFFFF" d="M17.834,41.215c1.313-1.601,2.571-3.139,3.834-4.674
		c0.341-0.414,0.619-1.003,1.06-1.18c0.594-0.237,1.608-0.443,1.912-0.137c0.414,0.416,0.687,1.6,0.396,1.986
		c-1.96,2.607-4.05,5.119-6.175,7.597c-0.64,0.745-1.553,0.627-2.188-0.099c-1.188-1.356-2.32-2.762-3.427-4.185
		c-0.594-0.763-0.534-1.587,0.24-2.196c0.779-0.613,1.565-0.435,2.197,0.291C16.387,39.425,17.051,40.265,17.834,41.215z"/>
	<path fill-rule="evenodd" clip-rule="evenodd" fill="#FFFFFF" d="M17.831,28.708c1.506-1.839,2.936-3.554,4.328-5.298
		c0.714-0.894,1.552-1.518,2.586-0.692c1.051,0.837,0.59,1.789-0.135,2.664c-1.771,2.138-3.505,4.306-5.286,6.436
		c-1.071,1.281-1.915,1.272-2.989,0.003c-1.007-1.188-1.983-2.404-2.96-3.618c-0.631-0.784-0.765-1.629,0.051-2.332
		c0.892-0.771,1.712-0.428,2.395,0.392C16.467,27.035,17.101,27.818,17.831,28.708z"/>
	<path fill-rule="evenodd" clip-rule="evenodd" fill="#FFFFFF" d="M17.84,53.71c1.489-1.812,2.921-3.524,4.319-5.265
		c0.706-0.879,1.514-1.574,2.578-0.724c1.053,0.842,0.605,1.798-0.118,2.676c-1.771,2.147-3.514,4.317-5.291,6.458
		c-1.016,1.223-1.947,1.206-3.01-0.042c-0.98-1.152-1.919-2.34-2.882-3.508c-0.683-0.828-0.876-1.718,0.032-2.438
		c0.892-0.709,1.729-0.359,2.404,0.478C16.482,52.098,17.111,52.836,17.84,53.71z"/>
	<path fill-rule="evenodd" clip-rule="evenodd" fill="#FFFFFF" d="M36.085,25.976c1.708-0.001,3.416,0.007,5.123-0.003
		c1.08-0.008,1.87,0.426,1.881,1.564c0.011,1.16-0.824,1.58-1.875,1.584c-3.415,0.012-6.83,0.012-10.245,0
		c-1.05-0.003-1.886-0.42-1.88-1.578c0.005-1.141,0.792-1.576,1.873-1.57C32.67,25.982,34.378,25.976,36.085,25.976z"/>
	<path fill-rule="evenodd" clip-rule="evenodd" fill="#FFFFFF" d="M36.018,54.126c-1.707-0.001-3.415-0.004-5.122,0.001
		c-1.021,0.003-1.758-0.433-1.807-1.489c-0.053-1.162,0.744-1.645,1.8-1.651c3.464-0.022,6.928-0.022,10.392,0
		c1.055,0.006,1.856,0.479,1.806,1.645c-0.045,1.055-0.777,1.498-1.799,1.496C39.53,54.124,37.774,54.126,36.018,54.126z"/>
	<path fill-rule="evenodd" clip-rule="evenodd" fill="#FFFFFF" d="M36.032,41.589c-1.706-0.001-3.411-0.007-5.117,0
		c-1.086,0.005-1.854-0.436-1.826-1.593c0.024-1.073,0.774-1.484,1.791-1.483c3.461,0.004,6.921,0.004,10.381,0
		c1.084-0.002,1.855,0.435,1.828,1.594c-0.027,1.072-0.776,1.487-1.793,1.484C39.541,41.586,37.787,41.59,36.032,41.589z"/>
</g>
</svg>
