<?xml version="1.0" encoding="utf-8"?>
<!-- Generator: Adobe Illustrator 16.0.0, SVG Export Plug-In . SVG Version: 6.00 Build 0)  -->
<!DOCTYPE svg PUBLIC "-//W3C//DTD SVG 1.1//EN" "http://www.w3.org/Graphics/SVG/1.1/DTD/svg11.dtd">
<svg version="1.1" id="Capa_1" xmlns="http://www.w3.org/2000/svg" xmlns:xlink="http://www.w3.org/1999/xlink" x="0px" y="0px"
	 width="106px" height="104px" viewBox="0 0 106 104" enable-background="new 0 0 106 104" xml:space="preserve">
<g>
	<path fill-rule="evenodd" clip-rule="evenodd" fill="#63A9DF" d="M66.134,96.326c-11.55,1.178-22.582,1.583-33.651,0.713
		c-6.402-0.503-12.801-0.935-19.003-2.782c-4.4-1.311-4.372-1.292-3.722-5.745c0.601-4.11,1.072-8.24,1.689-12.349
		c1.143-7.602,5.307-12.922,12.689-15.051c4.317-1.246,7.76-3.111,9.736-7.34c7.475,5.667,14.834,5.675,22.184,0.104
		c0.771,1.064,1.48,2.125,2.274,3.118c1.372,1.717,3.085,2.863,5.284,3.391c1.882,0.452,3.69,1.213,5.98,1.991
		c-6.129,3.975-9.816,9.114-10.538,16.062C58.332,85.413,60.824,91.226,66.134,96.326z"/>
	<path fill-rule="evenodd" clip-rule="evenodd" fill="#63A9DF" d="M41.931,7.034c-0.481,0.204-0.96,0.408-1.441,0.611
		C40.506,7.764,40.522,7.882,40.538,8c1.727-0.25,3.454-0.501,5.474-0.795c-0.417,0.297-0.59,0.42-1.022,0.729
		c2.083,0,3.916,0,5.748,0c0.004,0.093,0.008,0.186,0.013,0.279c-0.499,0.07-0.997,0.14-1.496,0.209
		c-0.003,0.087-0.006,0.174-0.01,0.261c2.378,0.469,4.756,0.938,7.134,1.407c-0.013,0.109-0.026,0.218-0.039,0.328
		c-0.591-0.068-1.182-0.137-1.375-0.159c1.267,1.173,2.823,2.449,4.179,3.91c1.88,2.025,2.288,4.778,2.52,7.294
		c0.347,3.753-0.049,7.57-0.047,11.359c0.001,3.436-1.066,6.457-3.109,9.2c-0.645,0.866-1.104,1.886-1.554,2.878
		c-1.943,4.281-4.872,7.512-9.612,8.557c-5.072,1.118-10.312-1.624-13.138-6.647c-1.281-2.276-2.699-4.489-3.79-6.854
		c-0.803-1.742-1.491-3.653-1.674-5.543c-0.437-4.489-0.66-9.009-0.728-13.52c-0.03-2.06,0.494-4.131,0.811-6.19
		c0.041-0.26,0.314-0.519,0.538-0.71c1.917-1.637,3.696-3.504,5.819-4.813c1.982-1.223,4.333-1.849,6.522-2.737
		C41.778,6.639,41.854,6.836,41.931,7.034z M44.969,22.621c0,0.016,0,0.032,0,0.048c-2.506,0-5.011-0.016-7.517,0.004
		c-3.699,0.031-4.112,0.485-4.223,4.28c-0.041,1.391,0.264,3.121-0.431,4.096c-1.465,2.057-1.092,4.058-0.238,5.855
		c1.584,3.339,3.321,6.668,5.463,9.667c3.516,4.922,9.634,5.455,13.298,0.88c2.734-3.413,4.546-7.578,6.652-11.471
		c0.406-0.75,0.335-1.789,0.362-2.699c0.013-0.446-0.238-0.907-0.398-1.351c-0.309-0.861-0.786-1.692-0.921-2.577
		c-0.165-1.076-0.01-2.196-0.063-3.294c-0.118-2.436-1.125-3.413-3.551-3.434C50.592,22.602,47.78,22.621,44.969,22.621z"/>
	<path fill-rule="evenodd" clip-rule="evenodd" fill="#63A9DF" d="M79.567,63.629c9.38,0.004,17.085,7.736,16.99,17.051
		c-0.096,9.324-7.707,16.881-16.997,16.878c-9.279-0.003-16.939-7.616-16.991-16.885C62.518,71.315,70.186,63.625,79.567,63.629z
		 M92.018,80.5c-0.044-6.922-5.596-12.399-12.536-12.367c-6.88,0.032-12.468,5.679-12.4,12.533
		c0.067,6.868,5.746,12.48,12.568,12.421C86.528,93.029,92.062,87.397,92.018,80.5z"/>
	<g>
		<path fill="#63A9DF" d="M78.67,91.221v-2.615c-1.501-0.026-3.029-0.492-3.935-1.139l0.622-1.735
			c0.906,0.622,2.252,1.113,3.676,1.113c1.864,0,3.106-1.061,3.106-2.537c0-1.424-1.01-2.304-2.925-3.081
			c-2.641-1.036-4.272-2.253-4.272-4.505c0-2.148,1.528-3.78,3.883-4.168v-2.589h1.631v2.511c1.553,0.052,2.615,0.466,3.365,0.906
			l-0.647,1.708c-0.544-0.311-1.605-0.906-3.262-0.906c-1.994,0-2.744,1.191-2.744,2.252c0,1.32,0.958,1.994,3.21,2.951
			c2.667,1.087,4.013,2.408,4.013,4.712c0,2.071-1.424,3.986-4.09,4.427v2.692H78.67z"/>
	</g>
</g>
</svg>
