<?xml version="1.0" encoding="utf-8"?>
<!-- Generator: Adobe Illustrator 16.0.0, SVG Export Plug-In . SVG Version: 6.00 Build 0)  -->
<!DOCTYPE svg PUBLIC "-//W3C//DTD SVG 1.1//EN" "http://www.w3.org/Graphics/SVG/1.1/DTD/svg11.dtd">
<svg version="1.1" id="Capa_1" xmlns="http://www.w3.org/2000/svg" xmlns:xlink="http://www.w3.org/1999/xlink" x="0px" y="0px"
	 width="106px" height="104px" viewBox="0 0 106 104" enable-background="new 0 0 106 104" xml:space="preserve">
<g>
	<path fill-rule="evenodd" clip-rule="evenodd" fill="#FFFFFF" d="M52.979,102.483c-9.462-0.008-18.139-2.63-26.007-7.872
		c-0.718-0.479-1.297-1.262-1.724-2.025c-0.136-0.244,0.379-1.226,0.68-1.268c0.757-0.106,1.644-0.051,2.334,0.26
		c4.419,1.983,8.629,4.64,13.227,5.982c12.401,3.618,24.154,1.503,35.095-5.321c1.146-0.715,2.508-2.385,3.747-0.523
		c1.235,1.858-0.827,2.513-1.937,3.235C70.677,99.968,62.202,102.494,52.979,102.483z"/>
	<path fill-rule="evenodd" clip-rule="evenodd" fill="#FFFFFF" d="M35.515,15.053c-0.351,0.335-0.796,1.009-1.423,1.323
		c-10.729,5.362-18.14,13.652-22.339,24.892c-0.267,0.714-1.532,1.055-2.332,1.569c-0.21-0.926-0.835-2-0.566-2.755
		c4.264-11.985,12.175-20.785,23.531-26.486C34.146,12.713,35.6,13.284,35.515,15.053z"/>
	<path fill-rule="evenodd" clip-rule="evenodd" fill="#FFFFFF" d="M97.553,41.474c-0.327,0.39-0.663,1.149-1.176,1.297
		c-0.522,0.151-1.405-0.122-1.792-0.53c-0.497-0.524-0.676-1.361-0.957-2.076c-4.066-10.349-11.023-18.103-20.868-23.27
		c-0.068-0.036-0.146-0.054-0.211-0.095c-1.057-0.655-2.822-1.039-1.975-2.769c0.923-1.886,2.408-0.71,3.569-0.118
		c6.364,3.241,11.916,7.576,15.979,13.446c2.612,3.775,4.542,8.024,6.747,12.076C97.16,39.968,97.267,40.598,97.553,41.474z"/>
	<g>
		<path fill-rule="evenodd" clip-rule="evenodd" fill="#FFFFFF" d="M68.702,38.146c-0.268-1.835-0.479-3.678-0.754-5.512
			c-0.421-2.799-1.763-4.902-4.068-6.087c0.033-0.022,0.064-0.044,0.097-0.065c-1.021-0.347-1.829-0.688-2.669-0.889
			c-0.003,0-0.006-0.001-0.009-0.002c-0.805-0.307-1.52-0.698-2.12-1.245c-0.079-0.085-0.155-0.173-0.229-0.266
			c-0.319-0.4-0.61-0.826-0.916-1.253c-0.032-0.062-0.063-0.122-0.094-0.185c-1.662,1.26-3.311,1.893-4.953,1.904
			c-1.643-0.011-3.291-0.644-4.953-1.904c-0.03,0.063-0.063,0.123-0.094,0.185c-0.306,0.427-0.597,0.853-0.916,1.253
			c-0.074,0.092-0.151,0.181-0.229,0.266c-0.602,0.547-1.316,0.938-2.12,1.245c-0.003,0-0.006,0.001-0.009,0.002
			c-0.84,0.202-1.647,0.542-2.669,0.889c0.033,0.021,0.064,0.043,0.097,0.065c-2.306,1.185-3.647,3.288-4.068,6.087
			c-0.275,1.834-0.485,3.677-0.754,5.512c-0.29,1.987-0.303,1.979,1.662,2.564c1.522,0.453,3.072,0.715,4.634,0.897
			c-0.009,0.009-0.017,0.018-0.026,0.026c1.753,0.179,3.479,0.316,5.188,0.407c1.416,0.083,2.834,0.122,4.258,0.12
			c1.424,0.002,2.842-0.037,4.259-0.12c1.709-0.09,3.435-0.228,5.188-0.407c-0.009-0.009-0.018-0.018-0.026-0.026
			c1.562-0.182,3.112-0.444,4.635-0.897C69.004,40.125,68.992,40.133,68.702,38.146z"/>
		<path fill-rule="evenodd" clip-rule="evenodd" fill="#FFFFFF" d="M51.63,1.78c-0.215,0.091-0.429,0.182-0.644,0.273
			c0.008,0.054,0.015,0.106,0.022,0.159c0.771-0.112,1.541-0.224,2.442-0.355c-0.186,0.133-0.264,0.188-0.456,0.326
			c0.93,0,1.748,0,2.566,0c0.001,0.041,0.003,0.083,0.005,0.124c-0.223,0.031-0.445,0.063-0.668,0.093
			c-0.001,0.039-0.003,0.078-0.004,0.117c1.062,0.209,2.123,0.418,3.184,0.628c-0.005,0.049-0.012,0.097-0.018,0.146
			c-0.264-0.031-0.527-0.062-0.613-0.071c0.565,0.523,1.26,1.093,1.865,1.745c0.839,0.904,1.021,2.132,1.125,3.255
			c0.154,1.675-0.022,3.378-0.022,5.07c0.001,1.533-0.475,2.882-1.387,4.106c-0.288,0.387-0.493,0.841-0.693,1.284
			c-0.867,1.911-2.175,3.353-4.29,3.819c-2.264,0.499-4.603-0.725-5.864-2.967c-0.57-1.016-1.204-2.003-1.691-3.059
			c-0.357-0.778-0.666-1.631-0.746-2.474c-0.195-2.004-0.295-4.021-0.325-6.034c-0.014-0.919,0.221-1.844,0.361-2.762
			c0.019-0.117,0.141-0.232,0.24-0.318c0.855-0.73,1.649-1.564,2.598-2.148c0.885-0.545,1.935-0.825,2.91-1.221
			C51.562,1.605,51.596,1.693,51.63,1.78z M52.985,8.737c0,0.007,0,0.015,0,0.021c-1.118,0-2.236-0.007-3.354,0.002
			c-1.65,0.013-1.835,0.216-1.885,1.91c-0.018,0.621,0.118,1.393-0.192,1.828c-0.654,0.918-0.487,1.811-0.106,2.614
			c0.707,1.49,1.483,2.976,2.438,4.314c1.569,2.197,4.3,2.435,5.935,0.393c1.221-1.524,2.029-3.382,2.97-5.12
			c0.182-0.335,0.149-0.798,0.162-1.205c0.006-0.199-0.106-0.405-0.178-0.603c-0.138-0.384-0.352-0.755-0.411-1.15
			c-0.074-0.48-0.005-0.98-0.028-1.47C58.282,9.185,57.834,8.75,56.75,8.74C55.496,8.729,54.24,8.737,52.985,8.737z"/>
	</g>
	<g>
		<path fill-rule="evenodd" clip-rule="evenodd" fill="#FFFFFF" d="M99.563,81.075c-0.268-1.835-0.478-3.678-0.754-5.512
			c-0.421-2.799-1.763-4.902-4.067-6.087c0.032-0.022,0.063-0.044,0.096-0.066c-1.021-0.346-1.829-0.687-2.669-0.888
			c-0.003-0.001-0.006-0.002-0.009-0.002c-0.805-0.307-1.519-0.698-2.121-1.246c-0.078-0.085-0.154-0.173-0.229-0.266
			c-0.319-0.4-0.61-0.825-0.916-1.253c-0.032-0.062-0.063-0.121-0.094-0.184c-1.662,1.259-3.312,1.892-4.953,1.903
			c-1.643-0.011-3.291-0.644-4.953-1.903c-0.03,0.063-0.063,0.123-0.094,0.184c-0.306,0.428-0.596,0.854-0.916,1.253
			c-0.073,0.093-0.15,0.181-0.229,0.266c-0.601,0.548-1.316,0.938-2.12,1.246c-0.003,0-0.006,0.001-0.008,0.002
			c-0.841,0.202-1.648,0.542-2.67,0.888c0.033,0.021,0.064,0.044,0.096,0.066c-2.305,1.185-3.646,3.288-4.066,6.087
			c-0.276,1.833-0.486,3.677-0.754,5.512c-0.292,1.987-0.303,1.979,1.661,2.563c1.522,0.454,3.072,0.716,4.634,0.898
			c-0.009,0.008-0.017,0.017-0.026,0.025c1.753,0.18,3.479,0.316,5.188,0.407c1.417,0.083,2.834,0.122,4.258,0.12
			c1.424,0.001,2.842-0.037,4.259-0.12c1.708-0.091,3.434-0.228,5.188-0.407c-0.009-0.008-0.018-0.017-0.026-0.025
			c1.562-0.182,3.111-0.444,4.635-0.898C99.864,83.054,99.853,83.062,99.563,81.075z"/>
		<path fill-rule="evenodd" clip-rule="evenodd" fill="#FFFFFF" d="M82.49,44.71c-0.215,0.091-0.428,0.182-0.644,0.273
			c0.008,0.053,0.015,0.106,0.021,0.158c0.771-0.112,1.542-0.224,2.443-0.354c-0.186,0.133-0.264,0.188-0.456,0.325
			c0.93,0,1.748,0,2.566,0c0.001,0.041,0.003,0.083,0.005,0.125c-0.223,0.031-0.445,0.062-0.667,0.093
			c-0.002,0.039-0.004,0.078-0.005,0.116c1.062,0.209,2.122,0.419,3.184,0.628c-0.006,0.049-0.012,0.098-0.017,0.146
			c-0.265-0.031-0.528-0.061-0.615-0.071c0.566,0.523,1.261,1.092,1.866,1.745c0.839,0.903,1.021,2.132,1.125,3.255
			c0.154,1.675-0.021,3.378-0.021,5.07c0,1.533-0.477,2.882-1.388,4.106c-0.288,0.387-0.492,0.842-0.693,1.285
			c-0.868,1.91-2.175,3.353-4.29,3.819c-2.264,0.5-4.603-0.725-5.863-2.966c-0.571-1.016-1.205-2.004-1.692-3.06
			c-0.357-0.777-0.666-1.63-0.746-2.474c-0.195-2.004-0.295-4.021-0.325-6.034c-0.014-0.919,0.221-1.844,0.361-2.762
			c0.019-0.117,0.141-0.232,0.24-0.317c0.855-0.731,1.65-1.564,2.598-2.148c0.884-0.546,1.934-0.825,2.91-1.222
			C82.423,44.534,82.456,44.622,82.49,44.71z M83.846,51.667c0,0.007,0,0.014,0,0.021c-1.118,0-2.236-0.008-3.354,0.001
			c-1.651,0.014-1.836,0.217-1.886,1.91c-0.018,0.621,0.118,1.393-0.192,1.828c-0.654,0.917-0.487,1.811-0.105,2.613
			c0.706,1.49,1.482,2.976,2.438,4.314c1.569,2.197,4.3,2.435,5.936,0.393c1.221-1.523,2.028-3.382,2.969-5.12
			c0.182-0.334,0.149-0.798,0.162-1.205c0.006-0.199-0.106-0.404-0.178-0.603c-0.138-0.384-0.352-0.755-0.411-1.15
			c-0.074-0.48-0.005-0.98-0.028-1.47c-0.053-1.087-0.502-1.523-1.586-1.533C86.355,51.658,85.101,51.667,83.846,51.667z"/>
	</g>
	<g>
		<path fill-rule="evenodd" clip-rule="evenodd" fill="#FFFFFF" d="M37.869,81.878c-0.268-1.834-0.479-3.678-0.754-5.511
			c-0.421-2.8-1.763-4.903-4.068-6.088c0.032-0.022,0.063-0.044,0.097-0.065c-1.022-0.347-1.829-0.688-2.669-0.889
			c-0.003,0-0.006-0.001-0.009-0.002c-0.804-0.307-1.52-0.698-2.12-1.245c-0.079-0.085-0.155-0.174-0.229-0.266
			c-0.319-0.4-0.61-0.826-0.917-1.253c-0.03-0.062-0.063-0.121-0.093-0.185c-1.662,1.26-3.312,1.893-4.953,1.903
			c-1.643-0.011-3.291-0.644-4.953-1.903c-0.03,0.063-0.063,0.123-0.094,0.185c-0.306,0.428-0.597,0.853-0.916,1.253
			c-0.074,0.092-0.151,0.181-0.229,0.266c-0.602,0.547-1.316,0.938-2.12,1.245c-0.003,0-0.006,0.001-0.009,0.002
			c-0.84,0.201-1.647,0.542-2.669,0.889c0.033,0.021,0.063,0.043,0.097,0.065c-2.307,1.185-3.647,3.288-4.068,6.088
			c-0.275,1.833-0.486,3.677-0.754,5.511c-0.29,1.987-0.303,1.979,1.661,2.563c1.523,0.454,3.073,0.716,4.635,0.898
			c-0.009,0.008-0.017,0.017-0.026,0.026c1.753,0.179,3.479,0.316,5.188,0.407c1.417,0.083,2.835,0.121,4.259,0.12
			c1.424,0.001,2.842-0.037,4.259-0.12c1.709-0.091,3.435-0.228,5.188-0.407c-0.01-0.009-0.018-0.018-0.027-0.026
			c1.563-0.182,3.112-0.444,4.636-0.898C38.171,83.856,38.159,83.865,37.869,81.878z"/>
		<path fill-rule="evenodd" clip-rule="evenodd" fill="#FFFFFF" d="M20.797,45.513c-0.215,0.091-0.429,0.182-0.644,0.273
			c0.008,0.053,0.015,0.106,0.022,0.159c0.77-0.112,1.541-0.224,2.442-0.355c-0.186,0.133-0.264,0.188-0.456,0.325
			c0.93,0,1.748,0,2.565,0c0.002,0.042,0.004,0.083,0.006,0.125c-0.223,0.031-0.445,0.062-0.668,0.093
			c-0.001,0.039-0.003,0.078-0.005,0.116c1.063,0.209,2.123,0.419,3.186,0.628c-0.007,0.048-0.013,0.097-0.019,0.146
			c-0.264-0.031-0.527-0.061-0.613-0.071c0.565,0.524,1.26,1.093,1.865,1.745c0.839,0.904,1.021,2.132,1.125,3.255
			c0.154,1.675-0.022,3.378-0.022,5.07c0.001,1.533-0.476,2.882-1.387,4.106c-0.287,0.387-0.493,0.842-0.693,1.285
			c-0.868,1.911-2.175,3.354-4.29,3.82c-2.264,0.499-4.603-0.725-5.864-2.967c-0.57-1.016-1.204-2.004-1.691-3.059
			c-0.358-0.778-0.666-1.63-0.746-2.474c-0.195-2.004-0.296-4.021-0.325-6.034c-0.014-0.919,0.221-1.844,0.361-2.762
			c0.019-0.117,0.141-0.232,0.24-0.317c0.855-0.73,1.65-1.564,2.597-2.148c0.885-0.546,1.935-0.825,2.911-1.222
			C20.729,45.337,20.763,45.425,20.797,45.513z M22.152,52.47c0,0.007,0,0.015,0,0.021c-1.118,0-2.236-0.007-3.354,0.001
			c-1.65,0.014-1.835,0.217-1.885,1.91c-0.018,0.621,0.117,1.393-0.192,1.828c-0.654,0.918-0.487,1.811-0.106,2.613
			c0.707,1.49,1.483,2.976,2.438,4.314c1.569,2.197,4.3,2.435,5.935,0.393c1.221-1.523,2.029-3.382,2.969-5.12
			c0.182-0.334,0.15-0.798,0.163-1.205c0.005-0.199-0.106-0.405-0.178-0.603c-0.138-0.385-0.352-0.755-0.412-1.15
			c-0.073-0.48-0.004-0.98-0.027-1.47c-0.053-1.088-0.501-1.523-1.585-1.533C24.663,52.461,23.408,52.47,22.152,52.47z"/>
	</g>
</g>
</svg>
